<svg width="100" height="100" viewBox="0 0 613 513" fill="none" xmlns="http://www.w3.org/2000/svg">
	<path
		d="M462.772 49.5657C431.001 17.8275 387.93 0 343.022 0C298.114 0 255.043 17.8275 223.272 49.5657C187.792 84.9957 160.102 127.996 160.102 191.996V277.826L119.482 318.416C109.782 328.106 95.482 329.486 82.702 324.416C69.7975 319.263 55.5098 318.723 42.2531 322.886C28.9963 327.05 17.5831 335.662 9.94172 347.267C2.30036 358.873 -1.10067 372.76 0.313238 386.583C1.72714 400.406 7.8693 413.318 17.702 423.136C32.972 438.386 54.212 442.696 73.822 438.206C69.322 457.806 73.642 479.036 88.922 494.306C98.7368 504.165 111.656 510.331 125.495 511.759C139.333 513.188 153.239 509.792 164.861 502.146C176.483 494.5 185.107 483.073 189.273 469.8C193.439 456.526 192.891 442.221 187.722 429.306C182.632 416.576 184.002 402.306 193.722 392.556L234.332 351.996H320.222C341.266 352.152 362.188 348.772 382.112 341.996C342.472 298.106 342.282 231.766 383.162 190.926C417.542 156.566 469.922 151.466 511.902 174.126C513.202 129.166 497.092 83.8457 462.772 49.5657Z"
		fill="#E99431" />
	<path
		d="M477.5 149C402.647 149 342 209.647 342 284.5C342 359.353 402.647 420 477.5 420C552.353 420 613 359.353 613 284.5C613 209.647 552.353 149 477.5 149ZM477.5 393.774C417.126 393.774 368.226 344.874 368.226 284.5C368.226 224.126 417.126 175.226 477.5 175.226C537.874 175.226 586.774 224.126 586.774 284.5C586.774 344.874 537.874 393.774 477.5 393.774ZM511.266 336.733L464.879 303.022C463.185 301.765 462.202 299.798 462.202 297.722V208.008C462.202 204.402 465.152 201.452 468.758 201.452H486.242C489.848 201.452 492.798 204.402 492.798 208.008V285.429L529.296 311.982C532.246 314.113 532.847 318.211 530.717 321.161L520.445 335.312C518.314 338.208 514.216 338.864 511.266 336.733Z"
		fill="#9C31E9" />
</svg>